{
  "accessors": [
    {
      "bufferView": 2,
      "componentType": 5126,
      "count": 33574,
      "max": [
        466.8590087890625,
        260.4631042480469,
        0.8241199254989624
      ],
      "min": [
        -459.87933349609375,
        -437.41290283203125,
        -0.5665355920791626
      ],
      "type": "VEC3"
    },
    {
      "bufferView": 2,
      "byteOffset": 402888,
      "componentType": 5126,
      "count": 33574,
      "max": [
        -0.00023168257030192763,
        -0.001806836575269699,
        -0.9999983310699463
      ],
      "min": [
        -0.0002318153128726408,
        -0.001806927379220724,
        -0.9999983906745911
      ],
      "type": "VEC3"
    },
    {
      "bufferView": 1,
      "componentType": 5126,
      "count": 33574,
      "max": [
        0.9999263882637024,
        0.5502430200576782
      ],
      "min": [
        7.384270429611206e-05,
        7.414817810058594e-05
      ],
      "type": "VEC2"
    },
    {
      "bufferView": 0,
      "componentType": 5125,
      "count": 195000,
      "type": "SCALAR"
    },
    {
      "bufferView": 2,
      "byteOffset": 805776,
      "componentType": 5126,
      "count": 33582,
      "max": [
        385.13641357421875,
        455.7899475097656,
        0.8513762354850769
      ],
      "min": [
        -174.3979949951172,
        -470.97711181640625,
        -0.8500187397003174
      ],
      "type": "VEC3"
    },
    {
      "bufferView": 2,
      "byteOffset": 1208760,
      "componentType": 5126,
      "count": 33582,
      "max": [
        -0.00023168679035734385,
        -0.0018068344797939062,
        -0.9999983310699463
      ],
      "min": [
        -0.0002318267652299255,
        -0.0018069278448820114,
        -0.9999983906745911
      ],
      "type": "VEC3"
    },
    {
      "bufferView": 1,
      "byteOffset": 268592,
      "componentType": 5126,
      "count": 33582,
      "max": [
        0.9999263882637024,
        0.5502430200576782
      ],
      "min": [
        7.384270429611206e-05,
        7.414817810058594e-05
      ],
      "type": "VEC2"
    },
    {
      "bufferView": 0,
      "byteOffset": 780000,
      "componentType": 5125,
      "count": 195000,
      "type": "SCALAR"
    },
    {
      "bufferView": 2,
      "byteOffset": 1611744,
      "componentType": 5126,
      "count": 33591,
      "max": [
        391.0598449707031,
        463.7598571777344,
        0.7338533401489258
      ],
      "min": [
        -467.84918212890625,
        -433.3331298828125,
        -0.8514171838760376
      ],
      "type": "VEC3"
    },
    {
      "bufferView": 2,
      "byteOffset": 2014836,
      "componentType": 5126,
      "count": 33591,
      "max": [
        -0.00023168290499597788,
        -0.001806840067729354,
        -0.9999983310699463
      ],
      "min": [
        -0.00023181919823400676,
        -0.0018069184152409434,
        -0.9999983906745911
      ],
      "type": "VEC3"
    },
    {
      "bufferView": 1,
      "byteOffset": 537248,
      "componentType": 5126,
      "count": 33591,
      "max": [
        0.9999263882637024,
        0.5502430200576782
      ],
      "min": [
        7.384270429611206e-05,
        7.414817810058594e-05
      ],
      "type": "VEC2"
    },
    {
      "bufferView": 0,
      "byteOffset": 1560000,
      "componentType": 5125,
      "count": 195000,
      "type": "SCALAR"
    },
    {
      "bufferView": 2,
      "byteOffset": 2417928,
      "componentType": 5126,
      "count": 1172,
      "max": [
        -118.44651794433594,
        349.1538391113281,
        -0.4079172611236572
      ],
      "min": [
        -217.27284240722656,
        243.8792266845703,
        -0.6024575233459473
      ],
      "type": "VEC3"
    },
    {
      "bufferView": 2,
      "byteOffset": 2431992,
      "componentType": 5126,
      "count": 1172,
      "max": [
        -0.0002316991740372032,
        -0.001806846121326089,
        -0.9999983310699463
      ],
      "min": [
        -0.00023180225980468094,
        -0.0018069228390231729,
        -0.9999983906745911
      ],
      "type": "VEC3"
    },
    {
      "bufferView": 1,
      "byteOffset": 805976,
      "componentType": 5126,
      "count": 1172,
      "max": [
        0.5,
        0.5006662607192993
      ],
      "min": [
        7.414817810058594e-05,
        0.04923403263092041
      ],
      "type": "VEC2"
    },
    {
      "bufferView": 0,
      "byteOffset": 2340000,
      "componentType": 5125,
      "count": 6432,
      "type": "SCALAR"
    },
    {
      "bufferView": 2,
      "byteOffset": 2446056,
      "componentType": 5126,
      "count": 33532,
      "max": [
        466.8891906738281,
        382.0071716308594,
        0.5664942860603333
      ],
      "min": [
        -467.8190612792969,
        -267.6801452636719,
        -0.6355840563774109
      ],
      "type": "VEC3"
    },
    {
      "bufferView": 2,
      "byteOffset": 2848440,
      "componentType": 5126,
      "count": 33532,
      "max": [
        -0.00023170496569946408,
        -0.001806841348297894,
        -0.9999983310699463
      ],
      "min": [
        -0.00023180083371698856,
        -0.0018069169018417597,
        -0.9999983906745911
      ],
      "type": "VEC3"
    },
    {
      "bufferView": 1,
      "byteOffset": 815352,
      "componentType": 5126,
      "count": 33532,
      "max": [
        0.9999263882637024,
        0.5502430200576782
      ],
      "min": [
        7.384270429611206e-05,
        7.414817810058594e-05
      ],
      "type": "VEC2"
    },
    {
      "bufferView": 0,
      "byteOffset": 2365728,
      "componentType": 5125,
      "count": 195000,
      "type": "SCALAR"
    },
    {
      "bufferView": 2,
      "byteOffset": 3250824,
      "componentType": 5126,
      "count": 33147,
      "max": [
        203.71533203125,
        4.998999118804932,
        182.0026397705078
      ],
      "min": [
        -203.70018005371094,
        -203.71539306640625,
        -182.0027618408203
      ],
      "type": "VEC3"
    },
    {
      "bufferView": 2,
      "byteOffset": 3648588,
      "componentType": 5126,
      "count": 33147,
      "max": [
        0.9999185800552368,
        0.021522976458072662,
        0.9998648762702942
      ],
      "min": [
        -0.9997127056121826,
        -0.9999484419822693,
        -0.999864935874939
      ],
      "type": "VEC3"
    },
    {
      "bufferView": 1,
      "byteOffset": 1083608,
      "componentType": 5126,
      "count": 33147,
      "max": [
        1.2499991655349731,
        0.9992228746414185
      ],
      "min": [
        0.21682217717170715,
        0.0008370876312255859
      ],
      "type": "VEC2"
    },
    {
      "bufferView": 0,
      "byteOffset": 3145728,
      "componentType": 5125,
      "count": 195000,
      "type": "SCALAR"
    },
    {
      "bufferView": 2,
      "byteOffset": 4046352,
      "componentType": 5126,
      "count": 590,
      "max": [
        -8.568167686462402e-05,
        0.00012233329471200705,
        182.0026397705078
      ],
      "min": [
        -203.71559143066406,
        -4.999401092529297,
        -182.0027618408203
      ],
      "type": "VEC3"
    },
    {
      "bufferView": 2,
      "byteOffset": 4053432,
      "componentType": 5126,
      "count": 590,
      "max": [
        -0.010835405439138412,
        -0.00021603204368148,
        0.9998432397842407
      ],
      "min": [
        -0.9999246597290039,
        -0.018595289438962936,
        -0.9998432397842407
      ],
      "type": "VEC3"
    },
    {
      "bufferView": 1,
      "byteOffset": 1348784,
      "componentType": 5126,
      "count": 590,
      "max": [
        0.275779664516449,
        0.9815768003463745
      ],
      "min": [
        0.24999988079071045,
        0.024693846702575684
      ],
      "type": "VEC2"
    },
    {
      "bufferView": 0,
      "byteOffset": 3925728,
      "componentType": 5125,
      "count": 1680,
      "type": "SCALAR"
    },
    {
      "bufferView": 2,
      "byteOffset": 4060512,
      "componentType": 5126,
      "count": 33302,
      "max": [
        203.71533203125,
        203.71539306640625,
        181.9488525390625
      ],
      "min": [
        -203.71559143066406,
        -4.993302822113037,
        -181.94894409179688
      ],
      "type": "VEC3"
    },
    {
      "bufferView": 2,
      "byteOffset": 4460136,
      "componentType": 5126,
      "count": 33302,
      "max": [
        0.9999245405197144,
        0.9999484419822693,
        0.9998648762702942
      ],
      "min": [
        -0.9999188184738159,
        -0.01224574726074934,
        -0.999864935874939
      ],
      "type": "VEC3"
    },
    {
      "bufferView": 1,
      "byteOffset": 1353504,
      "componentType": 5126,
      "count": 33302,
      "max": [
        1.2500011920928955,
        0.9993686676025391
      ],
      "min": [
        4.544854164123535e-05,
        0.0008370876312255859
      ],
      "type": "VEC2"
    },
    {
      "bufferView": 0,
      "byteOffset": 3932448,
      "componentType": 5125,
      "count": 195000,
      "type": "SCALAR"
    }
  ],
  "asset": {
    "extras": {
      "author": "uperesito (https://sketchfab.com/uperesito)",
      "license": "CC-BY-4.0 (http://creativecommons.org/licenses/by/4.0/)",
      "source": "https://sketchfab.com/3d-models/saturno-v11-5d546029721640a9ac332fb68b959e49",
      "title": "Saturno v1.1"
    },
    "generator": "Sketchfab-12.68.0",
    "version": "2.0"
  },
  "bufferViews": [
    {
      "buffer": 0,
      "byteLength": 4712448,
      "name": "floatBufferViews",
      "target": 34963
    },
    {
      "buffer": 0,
      "byteLength": 1619920,
      "byteOffset": 4712448,
      "byteStride": 8,
      "name": "floatBufferViews",
      "target": 34962
    },
    {
      "buffer": 0,
      "byteLength": 4859760,
      "byteOffset": 6332368,
      "byteStride": 12,
      "name": "floatBufferViews",
      "target": 34962
    }
  ],
  "buffers": [
    {
      "byteLength": 11192128,
      "uri": "scene.bin"
    }
  ],
  "images": [
    {
      "uri": "textures/material_0_baseColor.jpeg"
    },
    {
      "uri": "textures/material_baseColor.png"
    }
  ],
  "materials": [
    {
      "doubleSided": true,
      "name": "material_0",
      "pbrMetallicRoughness": {
        "baseColorTexture": {
          "index": 0
        },
        "metallicFactor": 0.0,
        "roughnessFactor": 0.6
      }
    },
    {
      "alphaMode": "BLEND",
      "doubleSided": true,
      "name": "material",
      "pbrMetallicRoughness": {
        "baseColorTexture": {
          "index": 1
        },
        "metallicFactor": 0.0,
        "roughnessFactor": 0.6
      }
    }
  ],
  "meshes": [
    {
      "name": "Object_0",
      "primitives": [
        {
          "attributes": {
            "NORMAL": 1,
            "POSITION": 0,
            "TEXCOORD_0": 2
          },
          "indices": 3,
          "material": 1,
          "mode": 4
        }
      ]
    },
    {
      "name": "Object_1",
      "primitives": [
        {
          "attributes": {
            "NORMAL": 5,
            "POSITION": 4,
            "TEXCOORD_0": 6
          },
          "indices": 7,
          "material": 1,
          "mode": 4
        }
      ]
    },
    {
      "name": "Object_2",
      "primitives": [
        {
          "attributes": {
            "NORMAL": 9,
            "POSITION": 8,
            "TEXCOORD_0": 10
          },
          "indices": 11,
          "material": 1,
          "mode": 4
        }
      ]
    },
    {
      "name": "Object_3",
      "primitives": [
        {
          "attributes": {
            "NORMAL": 13,
            "POSITION": 12,
            "TEXCOORD_0": 14
          },
          "indices": 15,
          "material": 1,
          "mode": 4
        }
      ]
    },
    {
      "name": "Object_4",
      "primitives": [
        {
          "attributes": {
            "NORMAL": 17,
            "POSITION": 16,
            "TEXCOORD_0": 18
          },
          "indices": 19,
          "material": 1,
          "mode": 4
        }
      ]
    },
    {
      "name": "Object_5",
      "primitives": [
        {
          "attributes": {
            "NORMAL": 21,
            "POSITION": 20,
            "TEXCOORD_0": 22
          },
          "indices": 23,
          "material": 0,
          "mode": 4
        }
      ]
    },
    {
      "name": "Object_6",
      "primitives": [
        {
          "attributes": {
            "NORMAL": 25,
            "POSITION": 24,
            "TEXCOORD_0": 26
          },
          "indices": 27,
          "material": 0,
          "mode": 4
        }
      ]
    },
    {
      "name": "Object_7",
      "primitives": [
        {
          "attributes": {
            "NORMAL": 29,
            "POSITION": 28,
            "TEXCOORD_0": 30
          },
          "indices": 31,
          "material": 0,
          "mode": 4
        }
      ]
    }
  ],
  "nodes": [
    {
      "children": [
        1
      ],
      "matrix": [
        1.0,
        0.0,
        0.0,
        0.0,
        0.0,
        2.220446049250313e-16,
        -1.0,
        0.0,
        0.0,
        1.0,
        2.220446049250313e-16,
        0.0,
        0.0,
        0.0,
        0.0,
        1.0
      ],
      "name": "Sketchfab_model"
    },
    {
      "children": [
        2,
        17
      ],
      "name": "saturn.3ds"
    },
    {
      "children": [
        3,
        6,
        9,
        12,
        15
      ],
      "matrix": [
        40.56538772583008,
        216.8327178955078,
        -0.4011865556240082,
        0.0,
        -0.05113445967435837,
        -0.3986094892024994,
        -220.59463500976563,
        0.0,
        -216.83306884765625,
        40.56542205810547,
        -0.02303614281117916,
        0.0,
        -0.48357322812080383,
        -3.6267924308776855,
        0.0,
        1.0
      ],
      "name": "Circle"
    },
    {
      "children": [
        4
      ],
      "matrix": [
        1.0000000000000002,
        0.0,
        -3.5251578970813056e-17,
        0.0,
        0.0,
        1.0,
        1.3552527156068805e-20,
        0.0,
        6.085746437564936e-18,
        -4.0657581468206416e-20,
        1.0,
        0.0,
        0.0,
        0.0,
        0.0,
        1.0
      ],
      "name": "TooBig2"
    },
    {
      "children": [
        5
      ],
      "matrix": [
        0.0008336134649049759,
        -1.0505818461768634e-06,
        -0.004455889255819963,
        0.0,
        0.004455881461313294,
        -8.190946515473166e-06,
        0.0008336140495381922,
        0.0,
        -8.244456874173406e-06,
        -0.004533187085876486,
        -4.7357671406657216e-07,
        0.0,
        0.016563670311008322,
        -3.021489607880289e-05,
        0.0008685963735527457,
        1.0
      ],
      "name": "3DSMeshMatrix"
    },
    {
      "mesh": 0,
      "name": "Object_5"
    },
    {
      "children": [
        7
      ],
      "matrix": [
        1.0000000000000002,
        0.0,
        -3.5251578970813056e-17,
        0.0,
        0.0,
        1.0,
        1.3552527156068805e-20,
        0.0,
        6.085746437564936e-18,
        -4.0657581468206416e-20,
        1.0,
        0.0,
        0.0,
        0.0,
        0.0,
        1.0
      ],
      "name": "TooBig3"
    },
    {
      "children": [
        8
      ],
      "matrix": [
        0.0008336134649049759,
        -1.0505818461768634e-06,
        -0.004455889255819963,
        0.0,
        0.004455881461313294,
        -8.190946515473166e-06,
        0.0008336140495381922,
        0.0,
        -8.244456874173406e-06,
        -0.004533187085876486,
        -4.7357671406657216e-07,
        0.0,
        0.016563670311008322,
        -3.021489607880289e-05,
        0.0008685963735527457,
        1.0
      ],
      "name": "3DSMeshMatrix"
    },
    {
      "mesh": 1,
      "name": "Object_8"
    },
    {
      "children": [
        10
      ],
      "matrix": [
        1.0000000000000002,
        0.0,
        -3.5251578970813056e-17,
        0.0,
        0.0,
        1.0,
        1.3552527156068805e-20,
        0.0,
        6.085746437564936e-18,
        -4.0657581468206416e-20,
        1.0,
        0.0,
        0.0,
        0.0,
        0.0,
        1.0
      ],
      "name": "TooBig4"
    },
    {
      "children": [
        11
      ],
      "matrix": [
        0.0008336134649049759,
        -1.0505818461768634e-06,
        -0.004455889255819963,
        0.0,
        0.004455881461313294,
        -8.190946515473166e-06,
        0.0008336140495381922,
        0.0,
        -8.244456874173406e-06,
        -0.004533187085876486,
        -4.7357671406657216e-07,
        0.0,
        0.016563670311008322,
        -3.021489607880289e-05,
        0.0008685963735527457,
        1.0
      ],
      "name": "3DSMeshMatrix"
    },
    {
      "mesh": 2,
      "name": "Object_11"
    },
    {
      "children": [
        13
      ],
      "matrix": [
        1.0000000000000002,
        0.0,
        -3.5251578970813056e-17,
        0.0,
        0.0,
        1.0,
        1.3552527156068805e-20,
        0.0,
        6.085746437564936e-18,
        -4.0657581468206416e-20,
        1.0,
        0.0,
        0.0,
        0.0,
        0.0,
        1.0
      ],
      "name": "TooBig5"
    },
    {
      "children": [
        14
      ],
      "matrix": [
        0.0008336134649049759,
        -1.0505818461768634e-06,
        -0.004455889255819963,
        0.0,
        0.004455881461313294,
        -8.190946515473166e-06,
        0.0008336140495381922,
        0.0,
        -8.244456874173406e-06,
        -0.004533187085876486,
        -4.7357671406657216e-07,
        0.0,
        0.016563670311008322,
        -3.021489607880289e-05,
        0.0008685963735527457,
        1.0
      ],
      "name": "3DSMeshMatrix"
    },
    {
      "mesh": 3,
      "name": "Object_14"
    },
    {
      "children": [
        16
      ],
      "matrix": [
        0.0008336134649049759,
        -1.0505818461768634e-06,
        -0.004455889255819963,
        0.0,
        0.004455881461313294,
        -8.190946515473166e-06,
        0.0008336140495381922,
        0.0,
        -8.244456874173406e-06,
        -0.004533187085876486,
        -4.7357671406657216e-07,
        0.0,
        0.016563670311008322,
        -3.021489607880289e-05,
        0.0008685963735527457,
        1.0
      ],
      "name": "3DSMeshMatrix"
    },
    {
      "mesh": 4,
      "name": "Object_16"
    },
    {
      "children": [
        18,
        21,
        24
      ],
      "matrix": [
        100.0,
        0.0,
        0.0,
        0.0,
        0.0,
        100.0,
        1.6323405361617915e-05,
        0.0,
        0.0,
        -1.6323405361617915e-05,
        100.0,
        0.0,
        0.0,
        0.0,
        0.0,
        1.0
      ],
      "name": "Sphere"
    },
    {
      "children": [
        19
      ],
      "matrix": [
        1.0,
        0.0,
        0.0,
        0.0,
        0.0,
        1.0000000000000002,
        0.0,
        0.0,
        0.0,
        0.0,
        1.0000000000000002,
        0.0,
        0.0,
        0.0,
        0.0,
        1.0
      ],
      "name": "TooBig0"
    },
    {
      "children": [
        20
      ],
      "matrix": [
        0.01,
        0.0,
        0.0,
        0.0,
        0.0,
        0.009999999999999735,
        -1.6292067812173194e-09,
        0.0,
        0.0,
        1.6292067812173194e-09,
        0.009999999999999735,
        0.0,
        -0.0,
        -0.0,
        -0.0,
        1.0
      ],
      "name": "3DSMeshMatrix"
    },
    {
      "mesh": 5,
      "name": "Object_20"
    },
    {
      "children": [
        22
      ],
      "matrix": [
        1.0,
        0.0,
        0.0,
        0.0,
        0.0,
        1.0000000000000002,
        0.0,
        0.0,
        0.0,
        0.0,
        1.0000000000000002,
        0.0,
        0.0,
        0.0,
        0.0,
        1.0
      ],
      "name": "TooBig1"
    },
    {
      "children": [
        23
      ],
      "matrix": [
        0.01,
        0.0,
        0.0,
        0.0,
        0.0,
        0.009999999999999735,
        -1.6292067812173194e-09,
        0.0,
        0.0,
        1.6292067812173194e-09,
        0.009999999999999735,
        0.0,
        -0.0,
        -0.0,
        -0.0,
        1.0
      ],
      "name": "3DSMeshMatrix"
    },
    {
      "mesh": 6,
      "name": "Object_23"
    },
    {
      "children": [
        25
      ],
      "matrix": [
        0.01,
        0.0,
        0.0,
        0.0,
        0.0,
        0.009999999999999735,
        -1.6292067812173194e-09,
        0.0,
        0.0,
        1.6292067812173194e-09,
        0.009999999999999735,
        0.0,
        -0.0,
        -0.0,
        -0.0,
        1.0
      ],
      "name": "3DSMeshMatrix"
    },
    {
      "mesh": 7,
      "name": "Object_25"
    }
  ],
  "samplers": [
    {
      "magFilter": 9729,
      "minFilter": 9987,
      "wrapS": 10497,
      "wrapT": 10497
    }
  ],
  "scene": 0,
  "scenes": [
    {
      "name": "Sketchfab_Scene",
      "nodes": [
        0
      ]
    }
  ],
  "textures": [
    {
      "sampler": 0,
      "source": 0
    },
    {
      "sampler": 0,
      "source": 1
    }
  ]
}
